<?xml version="1.0" encoding="utf-8"?>
<svg version="1.1" xmlns:xlink="http://www.w3.org/1999/xlink" width="12px" height="12px" viewBox="1173 327.5  12 12" xmlns="http://www.w3.org/2000/svg">
  <path d="M 1179 327.5  C 1182.36 327.5  1185 330.14  1185 333.5  C 1185 336.86  1182.36 339.5  1179 339.5  C 1175.64 339.5  1173 336.86  1173 333.5  C 1173 330.14  1175.64 327.5  1179 327.5  Z " fill-rule="nonzero" fill="#ffffff" stroke="none" />
  <path d="M 1179 328  C 1182.08 328  1184.5 330.42  1184.5 333.5  C 1184.5 336.58  1182.08 339  1179 339  C 1175.92 339  1173.5 336.58  1173.5 333.5  C 1173.5 330.42  1175.92 328  1179 328  Z " stroke-width="1" stroke="#797979" fill="none" />
  <path d="M 1179 336.5  C 1177.32 336.5  1176 335.18  1176 333.5  C 1176 331.82  1177.32 330.5  1179 330.5  C 1180.68 330.5  1182 331.82  1182 333.5  C 1182 335.18  1180.68 336.5  1179 336.5  " fill-rule="nonzero" fill="#797979" stroke="none" />
</svg>