<?xml version="1.0" encoding="utf-8"?>
<svg version="1.1" xmlns:xlink="http://www.w3.org/1999/xlink" width="12px" height="12px" viewBox="1226 327.5  12 12" xmlns="http://www.w3.org/2000/svg">
  <path d="M 1232 327.5  C 1235.36 327.5  1238 330.14  1238 333.5  C 1238 336.86  1235.36 339.5  1232 339.5  C 1228.64 339.5  1226 336.86  1226 333.5  C 1226 330.14  1228.64 327.5  1232 327.5  Z " fill-rule="nonzero" fill="#ffffff" stroke="none" />
  <path d="M 1232 328  C 1235.08 328  1237.5 330.42  1237.5 333.5  C 1237.5 336.58  1235.08 339  1232 339  C 1228.92 339  1226.5 336.58  1226.5 333.5  C 1226.5 330.42  1228.92 328  1232 328  Z " stroke-width="1" stroke="#797979" fill="none" />
  <path d="M 1232 336.5  C 1230.32 336.5  1229 335.18  1229 333.5  C 1229 331.82  1230.32 330.5  1232 330.5  C 1233.68 330.5  1235 331.82  1235 333.5  C 1235 335.18  1233.68 336.5  1232 336.5  " fill-rule="nonzero" fill="#797979" stroke="none" />
</svg>