<?xml version="1.0" standalone="no"?><!DOCTYPE svg PUBLIC "-//W3C//DTD SVG 1.1//EN" "http://www.w3.org/Graphics/SVG/1.1/DTD/svg11.dtd"><svg t="1670667389774" class="icon" viewBox="0 0 1024 1024" version="1.1" xmlns="http://www.w3.org/2000/svg" p-id="11970" xmlns:xlink="http://www.w3.org/1999/xlink" width="32" height="32"><path d="M192 128a64 64 0 0 0-64 64v640a64 64 0 0 0 64 64h640a64 64 0 0 0 64-64V192a64 64 0 0 0-64-64H192m0-128h640a192 192 0 0 1 192 192v640a192 192 0 0 1-192 192H192a192 192 0 0 1-192-192V192a192 192 0 0 1 192-192z" fill="#01cbd2" p-id="11971"></path><path d="M450.56 268.8m64 0l0 0q64 0 64 64l0 384q0 64-64 64l0 0q-64 0-64-64l0-384q0-64 64-64Z" fill="#01cbd2" p-id="11972"></path><path d="M514.309738 243.222539m45.254834 45.254834l0 0q45.254834 45.254834 0 90.509668l-135.764502 135.764502q-45.254834 45.254834-90.509668 0l0 0q-45.254834-45.254834 0-90.509668l135.764502-135.764502q45.254834-45.254834 90.509668 0Z" fill="#01cbd2" p-id="11973"></path><path d="M424.020446 333.684014m45.254834-45.254834l0 0q45.254834-45.254834 90.509668 0l135.764502 135.764502q45.254834 45.254834 0 90.509668l0 0q-45.254834 45.254834-90.509668 0l-135.764502-135.764502q-45.254834-45.254834 0-90.509668Z" fill="#01cbd2" p-id="11974"></path></svg>