<?xml version="1.0" encoding="utf-8"?>
<svg version="1.1" xmlns:xlink="http://www.w3.org/1999/xlink" width="12px" height="12px" viewBox="977 177.5  12 12" xmlns="http://www.w3.org/2000/svg">
  <path d="M 983 177.5  C 986.36 177.5  989 180.14  989 183.5  C 989 186.86  986.36 189.5  983 189.5  C 979.64 189.5  977 186.86  977 183.5  C 977 180.14  979.64 177.5  983 177.5  Z " fill-rule="nonzero" fill="#ffffff" stroke="none" />
  <path d="M 983 178  C 986.08 178  988.5 180.42  988.5 183.5  C 988.5 186.58  986.08 189  983 189  C 979.92 189  977.5 186.58  977.5 183.5  C 977.5 180.42  979.92 178  983 178  Z " stroke-width="1" stroke="#797979" fill="none" />
  <path d="M 983 186.5  C 981.32 186.5  980 185.18  980 183.5  C 980 181.82  981.32 180.5  983 180.5  C 984.68 180.5  986 181.82  986 183.5  C 986 185.18  984.68 186.5  983 186.5  " fill-rule="nonzero" fill="#797979" stroke="none" />
</svg>