<?xml version="1.0" encoding="utf-8"?>
<svg version="1.1" xmlns:xlink="http://www.w3.org/1999/xlink" width="12px" height="12px" viewBox="977 227.5  12 12" xmlns="http://www.w3.org/2000/svg">
  <path d="M 983 227.5  C 986.36 227.5  989 230.14  989 233.5  C 989 236.86  986.36 239.5  983 239.5  C 979.64 239.5  977 236.86  977 233.5  C 977 230.14  979.64 227.5  983 227.5  Z " fill-rule="nonzero" fill="#ffffff" stroke="none" />
  <path d="M 983 228  C 986.08 228  988.5 230.42  988.5 233.5  C 988.5 236.58  986.08 239  983 239  C 979.92 239  977.5 236.58  977.5 233.5  C 977.5 230.42  979.92 228  983 228  Z " stroke-width="1" stroke="#797979" fill="none" />
  <path d="M 983 236.5  C 981.32 236.5  980 235.18  980 233.5  C 980 231.82  981.32 230.5  983 230.5  C 984.68 230.5  986 231.82  986 233.5  C 986 235.18  984.68 236.5  983 236.5  " fill-rule="nonzero" fill="#797979" stroke="none" />
</svg>