<?xml version="1.0" encoding="utf-8"?>
<svg version="1.1" xmlns:xlink="http://www.w3.org/1999/xlink" width="12px" height="12px" viewBox="977 129.5  12 12" xmlns="http://www.w3.org/2000/svg">
  <path d="M 983 129.5  C 986.36 129.5  989 132.14  989 135.5  C 989 138.86  986.36 141.5  983 141.5  C 979.64 141.5  977 138.86  977 135.5  C 977 132.14  979.64 129.5  983 129.5  Z " fill-rule="nonzero" fill="#ffffff" stroke="none" />
  <path d="M 983 130  C 986.08 130  988.5 132.42  988.5 135.5  C 988.5 138.58  986.08 141  983 141  C 979.92 141  977.5 138.58  977.5 135.5  C 977.5 132.42  979.92 130  983 130  Z " stroke-width="1" stroke="#797979" fill="none" />
  <path d="M 983 138.5  C 981.32 138.5  980 137.18  980 135.5  C 980 133.82  981.32 132.5  983 132.5  C 984.68 132.5  986 133.82  986 135.5  C 986 137.18  984.68 138.5  983 138.5  " fill-rule="nonzero" fill="#797979" stroke="none" />
</svg>