<?xml version="1.0" standalone="no"?><!DOCTYPE svg PUBLIC "-//W3C//DTD SVG 1.1//EN" "http://www.w3.org/Graphics/SVG/1.1/DTD/svg11.dtd"><svg t="1670851240017" class="icon" viewBox="0 0 1024 1024" version="1.1" xmlns="http://www.w3.org/2000/svg" p-id="7390" xmlns:xlink="http://www.w3.org/1999/xlink" width="48" height="48"><path d="M240.64 874.496q-17.408 17.408-36.864 20.48t-36.352-6.656-28.16-30.72-11.264-51.712l0-461.824q0-27.648 9.728-52.736t26.112-43.52 38.912-29.184 48.128-10.752q59.392 0 122.88 0.512t126.976 0.512 124.416 0.512 116.224 0.512q26.624 0 45.056 11.264t27.136 27.648 5.632 36.352-20.48 36.352q-19.456 19.456-50.688 50.176t-70.144 69.12-82.432 81.92-87.552 87.04-86.528 85.504-77.824 77.312-62.464 61.952-40.448 39.936z" p-id="7391" fill="#006ddd"></path></svg>