<?xml version="1.0" encoding="utf-8"?>
<svg version="1.1" xmlns:xlink="http://www.w3.org/1999/xlink" width="12px" height="12px" viewBox="1063 322.5  12 12" xmlns="http://www.w3.org/2000/svg">
  <path d="M 1069 322.5  C 1072.36 322.5  1075 325.14  1075 328.5  C 1075 331.86  1072.36 334.5  1069 334.5  C 1065.64 334.5  1063 331.86  1063 328.5  C 1063 325.14  1065.64 322.5  1069 322.5  Z " fill-rule="nonzero" fill="#ffffff" stroke="none" />
  <path d="M 1069 323  C 1072.08 323  1074.5 325.42  1074.5 328.5  C 1074.5 331.58  1072.08 334  1069 334  C 1065.92 334  1063.5 331.58  1063.5 328.5  C 1063.5 325.42  1065.92 323  1069 323  Z " stroke-width="1" stroke="#797979" fill="none" />
  <path d="M 1069 331.5  C 1067.32 331.5  1066 330.18  1066 328.5  C 1066 326.82  1067.32 325.5  1069 325.5  C 1070.68 325.5  1072 326.82  1072 328.5  C 1072 330.18  1070.68 331.5  1069 331.5  " fill-rule="nonzero" fill="#797979" stroke="none" />
</svg>