<?xml version="1.0" encoding="utf-8"?>
<svg version="1.1" xmlns:xlink="http://www.w3.org/1999/xlink" width="12px" height="12px" viewBox="978 372.5  12 12" xmlns="http://www.w3.org/2000/svg">
  <path d="M 984 372.5  C 987.36 372.5  990 375.14  990 378.5  C 990 381.86  987.36 384.5  984 384.5  C 980.64 384.5  978 381.86  978 378.5  C 978 375.14  980.64 372.5  984 372.5  Z " fill-rule="nonzero" fill="#ffffff" stroke="none" />
  <path d="M 984 373  C 987.08 373  989.5 375.42  989.5 378.5  C 989.5 381.58  987.08 384  984 384  C 980.92 384  978.5 381.58  978.5 378.5  C 978.5 375.42  980.92 373  984 373  Z " stroke-width="1" stroke="#797979" fill="none" />
  <path d="M 984 381.5  C 982.32 381.5  981 380.18  981 378.5  C 981 376.82  982.32 375.5  984 375.5  C 985.68 375.5  987 376.82  987 378.5  C 987 380.18  985.68 381.5  984 381.5  " fill-rule="nonzero" fill="#797979" stroke="none" />
</svg>