<?xml version="1.0" encoding="utf-8"?>
<svg version="1.1" xmlns:xlink="http://www.w3.org/1999/xlink" width="12px" height="12px" viewBox="978 403  12 12" xmlns="http://www.w3.org/2000/svg">
  <path d="M 984 403  C 987.36 403  990 405.64  990 409  C 990 412.36  987.36 415  984 415  C 980.64 415  978 412.36  978 409  C 978 405.64  980.64 403  984 403  Z " fill-rule="nonzero" fill="#ffffff" stroke="none" />
  <path d="M 984 403.5  C 987.08 403.5  989.5 405.92  989.5 409  C 989.5 412.08  987.08 414.5  984 414.5  C 980.92 414.5  978.5 412.08  978.5 409  C 978.5 405.92  980.92 403.5  984 403.5  Z " stroke-width="1" stroke="#797979" fill="none" />
  <path d="M 984 412  C 982.32 412  981 410.68  981 409  C 981 407.32  982.32 406  984 406  C 985.68 406  987 407.32  987 409  C 987 410.68  985.68 412  984 412  " fill-rule="nonzero" fill="#797979" stroke="none" />
</svg>