<?xml version="1.0" encoding="utf-8"?>
<svg version="1.1" xmlns:xlink="http://www.w3.org/1999/xlink" width="12px" height="12px" viewBox="1063 274.5  12 12" xmlns="http://www.w3.org/2000/svg">
  <path d="M 1069 274.5  C 1072.36 274.5  1075 277.14  1075 280.5  C 1075 283.86  1072.36 286.5  1069 286.5  C 1065.64 286.5  1063 283.86  1063 280.5  C 1063 277.14  1065.64 274.5  1069 274.5  Z " fill-rule="nonzero" fill="#ffffff" stroke="none" />
  <path d="M 1069 275  C 1072.08 275  1074.5 277.42  1074.5 280.5  C 1074.5 283.58  1072.08 286  1069 286  C 1065.92 286  1063.5 283.58  1063.5 280.5  C 1063.5 277.42  1065.92 275  1069 275  Z " stroke-width="1" stroke="#797979" fill="none" />
  <path d="M 1069 283.5  C 1067.32 283.5  1066 282.18  1066 280.5  C 1066 278.82  1067.32 277.5  1069 277.5  C 1070.68 277.5  1072 278.82  1072 280.5  C 1072 282.18  1070.68 283.5  1069 283.5  " fill-rule="nonzero" fill="#797979" stroke="none" />
</svg>