<?xml version="1.0" encoding="utf-8"?>
<svg version="1.1" xmlns:xlink="http://www.w3.org/1999/xlink" width="12px" height="12px" viewBox="1097 403  12 12" xmlns="http://www.w3.org/2000/svg">
  <path d="M 1103 403  C 1106.36 403  1109 405.64  1109 409  C 1109 412.36  1106.36 415  1103 415  C 1099.64 415  1097 412.36  1097 409  C 1097 405.64  1099.64 403  1103 403  Z " fill-rule="nonzero" fill="#ffffff" stroke="none" />
  <path d="M 1103 403.5  C 1106.08 403.5  1108.5 405.92  1108.5 409  C 1108.5 412.08  1106.08 414.5  1103 414.5  C 1099.92 414.5  1097.5 412.08  1097.5 409  C 1097.5 405.92  1099.92 403.5  1103 403.5  Z " stroke-width="1" stroke="#797979" fill="none" />
  <path d="M 1103 412  C 1101.32 412  1100 410.68  1100 409  C 1100 407.32  1101.32 406  1103 406  C 1104.68 406  1106 407.32  1106 409  C 1106 410.68  1104.68 412  1103 412  " fill-rule="nonzero" fill="#797979" stroke="none" />
</svg>