<?xml version="1.0" standalone="no"?><!DOCTYPE svg PUBLIC "-//W3C//DTD SVG 1.1//EN" "http://www.w3.org/Graphics/SVG/1.1/DTD/svg11.dtd"><svg t="1670740000500" class="icon" viewBox="0 0 2048 1024" version="1.1" xmlns="http://www.w3.org/2000/svg" p-id="9797" xmlns:xlink="http://www.w3.org/1999/xlink" width="96" height="48"><path d="M1872 607.36c0 35.2-28.736 64-64 64H1696V357.376h112c35.264 0 64 28.672 64 64V607.36z m-304 203.328c0 35.2-28.736 64-64 64H192c-35.264 0-64-28.8-64-64v-607.36c0-35.264 28.736-64 64-64h1312c35.264 0 64 28.736 64 64v607.36z m240-581.312H1696v-25.984a192.256 192.256 0 0 0-192-192.064H192c-105.856 0-192 86.144-192 192v607.36c0 105.856 86.144 192 192 192h1312c105.856 0 192-86.144 192-192v-11.328h112c105.856 0 192-86.144 192-192V421.376c0-105.92-86.144-192-192-192z" p-id="9798" fill="#01cbd2"></path></svg>