<?xml version="1.0" encoding="utf-8"?>
<svg version="1.1" xmlns:xlink="http://www.w3.org/1999/xlink" width="12px" height="12px" viewBox="164 244.5  12 12" xmlns="http://www.w3.org/2000/svg">
  <path d="M 170 244.5  C 173.36 244.5  176 247.14  176 250.5  C 176 253.86  173.36 256.5  170 256.5  C 166.64 256.5  164 253.86  164 250.5  C 164 247.14  166.64 244.5  170 244.5  Z " fill-rule="nonzero" fill="#ffffff" stroke="none" />
  <path d="M 170 245  C 173.08 245  175.5 247.42  175.5 250.5  C 175.5 253.58  173.08 256  170 256  C 166.92 256  164.5 253.58  164.5 250.5  C 164.5 247.42  166.92 245  170 245  Z " stroke-width="1" stroke="#797979" fill="none" />
  <path d="M 170 253.5  C 168.32 253.5  167 252.18  167 250.5  C 167 248.82  168.32 247.5  170 247.5  C 171.68 247.5  173 248.82  173 250.5  C 173 252.18  171.68 253.5  170 253.5  " fill-rule="nonzero" fill="#797979" stroke="none" />
</svg>