<?xml version="1.0" encoding="utf-8"?>
<svg version="1.1" xmlns:xlink="http://www.w3.org/1999/xlink" width="12px" height="12px" viewBox="215 244.5  12 12" xmlns="http://www.w3.org/2000/svg">
  <path d="M 221 244.5  C 224.36 244.5  227 247.14  227 250.5  C 227 253.86  224.36 256.5  221 256.5  C 217.64 256.5  215 253.86  215 250.5  C 215 247.14  217.64 244.5  221 244.5  Z " fill-rule="nonzero" fill="#ffffff" stroke="none" />
  <path d="M 221 245  C 224.08 245  226.5 247.42  226.5 250.5  C 226.5 253.58  224.08 256  221 256  C 217.92 256  215.5 253.58  215.5 250.5  C 215.5 247.42  217.92 245  221 245  Z " stroke-width="1" stroke="#797979" fill="none" />
  <path d="M 221 253.5  C 219.32 253.5  218 252.18  218 250.5  C 218 248.82  219.32 247.5  221 247.5  C 222.68 247.5  224 248.82  224 250.5  C 224 252.18  222.68 253.5  221 253.5  " fill-rule="nonzero" fill="#797979" stroke="none" />
</svg>