<?xml version="1.0" encoding="utf-8"?>
<svg version="1.1" xmlns:xlink="http://www.w3.org/1999/xlink" width="12px" height="12px" viewBox="271 244.5  12 12" xmlns="http://www.w3.org/2000/svg">
  <path d="M 277 244.5  C 280.36 244.5  283 247.14  283 250.5  C 283 253.86  280.36 256.5  277 256.5  C 273.64 256.5  271 253.86  271 250.5  C 271 247.14  273.64 244.5  277 244.5  Z " fill-rule="nonzero" fill="#ffffff" stroke="none" />
  <path d="M 277 245  C 280.08 245  282.5 247.42  282.5 250.5  C 282.5 253.58  280.08 256  277 256  C 273.92 256  271.5 253.58  271.5 250.5  C 271.5 247.42  273.92 245  277 245  Z " stroke-width="1" stroke="#797979" fill="none" />
  <path d="M 277 253.5  C 275.32 253.5  274 252.18  274 250.5  C 274 248.82  275.32 247.5  277 247.5  C 278.68 247.5  280 248.82  280 250.5  C 280 252.18  278.68 253.5  277 253.5  " fill-rule="nonzero" fill="#797979" stroke="none" />
</svg>