<?xml version="1.0" standalone="no"?><!DOCTYPE svg PUBLIC "-//W3C//DTD SVG 1.1//EN" "http://www.w3.org/Graphics/SVG/1.1/DTD/svg11.dtd"><svg t="1670642249836" class="icon" viewBox="0 0 1024 1024" version="1.1" xmlns="http://www.w3.org/2000/svg" p-id="3505" width="16" height="16" xmlns:xlink="http://www.w3.org/1999/xlink"><path d="M226.167467 541.474133A106.632533 106.632533 0 1 1 332.8 434.8416a106.752 106.752 0 0 1-106.632533 106.632533z m0-179.114666A72.4992 72.4992 0 1 0 298.666667 434.8416a72.567467 72.567467 0 0 0-72.4992-72.482133z" p-id="3506" fill="#01CBD2"></path><path d="M227.9424 541.44a108.1856 108.1856 0 0 1-49.339733-204.561067L507.733333 168.96a108.1856 108.1856 0 1 1 98.304 192.853333l-329.130666 167.8336a107.52 107.52 0 0 1-48.964267 11.793067z m328.823467-350.088533a73.693867 73.693867 0 0 0-33.536 8.0896L194.116267 367.274667a74.069333 74.069333 0 1 0 67.293866 131.959466L590.506667 331.400533a74.069333 74.069333 0 0 0-33.757867-140.049066z" p-id="3507" fill="#01CBD2"></path><path d="M436.667733 849.527467a110.626133 110.626133 0 0 1-20.155733-1.877334 107.52 107.52 0 0 1-69.358933-45.243733L138.461867 497.544533a108.202667 108.202667 0 0 1 178.568533-122.231466L525.653333 680.192a108.2368 108.2368 0 0 1-89.053866 169.335467zM227.6352 362.3936a74.018133 74.018133 0 0 0-61.013333 115.8656l208.6912 304.878933a74.069333 74.069333 0 1 0 122.231466-83.626666L288.8704 394.5984a74.052267 74.052267 0 0 0-61.2352-32.2048zM657.237333 266.581333l-11.281066-28.347733c-4.693333-14.062933-7.645867-18.670933-15.5648-30.976l-1.211734-1.8944-21.845333-23.278933L704.699733 146.773333l-0.1024 98.7136z m14.506667-37.376l0.3584 0.904534 5.205333-2.321067v-42.018133l-22.971733 8.311466c7.850667 12.066133 11.9296 18.807467 17.408 35.1232zM819.9168 344.337067l-90.999467-75.997867 1.8432-132.2496 93.0816-73.4208 81.646934 68.181333-32.8192 39.287467-49.749334-41.540267-41.301333 32.580267-1.1776 83.5072 40.3968 33.723733 50.8928-40.1408 31.709867 40.192-83.524267 65.877334z" p-id="3508" fill="#01CBD2"></path><path d="M701.1328 183.944533h37.819733v32.4096h-37.819733zM338.397867 775.611733h14.779733a16.093867 16.093867 0 0 1 16.093867 16.093867v89.736533h-30.8736v-105.813333-0.017067zM513.962667 723.524267h9.181866a21.538133 21.538133 0 0 1 21.538134 21.538133v144.401067h-30.72v-165.9392z" p-id="3509" fill="#01CBD2"></path><path d="M769.518933 967.099733H128.853333a41.147733 41.147733 0 0 1-41.096533-41.1136v-7.099733a41.130667 41.130667 0 0 1 41.096533-41.096533h640.6656A41.147733 41.147733 0 0 1 810.666667 918.8864v7.099733a41.1648 41.1648 0 0 1-41.147734 41.1136zM128.853333 911.9232a6.9632 6.9632 0 0 0-6.9632 6.9632v7.099733a6.980267 6.980267 0 0 0 6.9632 6.980267h640.6656a6.980267 6.980267 0 0 0 6.980267-6.980267v-7.099733a6.980267 6.980267 0 0 0-6.980267-6.9632z" p-id="3510" fill="#01CBD2"></path><path d="M171.8272 960H129.792a42.0864 42.0864 0 0 1-42.0352-42.0352v-62.395733a42.0352 42.0352 0 0 1 84.0704 0z m-42.0352-112.3328a7.918933 7.918933 0 0 0-7.901867 7.901867v62.395733a7.918933 7.918933 0 0 0 7.901867 7.901867h7.901867v-70.2976a7.901867 7.901867 0 0 0-7.901867-7.901867zM768.1536 960h-42.0352v-104.430933a42.0352 42.0352 0 0 1 84.0704 0v62.395733a42.0864 42.0864 0 0 1-42.0352 42.0352z m-7.901867-34.133333h7.901867a7.918933 7.918933 0 0 0 7.901867-7.901867v-62.395733a7.901867 7.901867 0 0 0-15.803734 0z" p-id="3511" fill="#01CBD2"></path></svg>