<?xml version="1.0" encoding="utf-8"?>
<svg version="1.1" xmlns:xlink="http://www.w3.org/1999/xlink" width="69px" height="14px" xmlns="http://www.w3.org/2000/svg">
  <defs>
    <mask fill="white" id="clip13">
      <path d="M 0 14  L 0 0  L 20.3157894736842 0  L 28.4864864864865 0  L 39.8378378378379 0  L 43.3421052631579 0  L 69 0  L 69 14  L 43.3421052631579 14  L 38.7567567567567 14  L 0 14  Z " fill-rule="evenodd" />
    </mask>
  </defs>
  <g transform="matrix(1 0 0 1 -1034 -326 )">
    <path d="M 0 14  L 0 0  L 20.3157894736842 0  L 28.4864864864865 0  L 39.8378378378379 0  L 43.3421052631579 0  L 69 0  L 69 14  L 43.3421052631579 14  L 38.7567567567567 14  L 0 14  Z " fill-rule="nonzero" fill="#064fa0" stroke="none" transform="matrix(1 0 0 1 1034 326 )" />
    <path d="M 0 14  L 0 0  L 20.3157894736842 0  L 28.4864864864865 0  L 39.8378378378379 0  L 43.3421052631579 0  L 69 0  L 69 14  L 43.3421052631579 14  L 38.7567567567567 14  L 0 14  Z " stroke-width="2" stroke="#797979" fill="none" transform="matrix(1 0 0 1 1034 326 )" mask="url(#clip13)" />
  </g>
</svg>