<?xml version="1.0" encoding="utf-8"?>
<svg version="1.1" xmlns:xlink="http://www.w3.org/1999/xlink" width="12px" height="12px" viewBox="1118 327.5  12 12" xmlns="http://www.w3.org/2000/svg">
  <path d="M 1124 327.5  C 1127.36 327.5  1130 330.14  1130 333.5  C 1130 336.86  1127.36 339.5  1124 339.5  C 1120.64 339.5  1118 336.86  1118 333.5  C 1118 330.14  1120.64 327.5  1124 327.5  Z " fill-rule="nonzero" fill="#ffffff" stroke="none" />
  <path d="M 1124 328  C 1127.08 328  1129.5 330.42  1129.5 333.5  C 1129.5 336.58  1127.08 339  1124 339  C 1120.92 339  1118.5 336.58  1118.5 333.5  C 1118.5 330.42  1120.92 328  1124 328  Z " stroke-width="1" stroke="#797979" fill="none" />
  <path d="M 1124 336.5  C 1122.32 336.5  1121 335.18  1121 333.5  C 1121 331.82  1122.32 330.5  1124 330.5  C 1125.68 330.5  1127 331.82  1127 333.5  C 1127 335.18  1125.68 336.5  1124 336.5  " fill-rule="nonzero" fill="#797979" stroke="none" />
</svg>